<svg width="170" height="32" viewBox="0 0 170 32" fill="none" xmlns="http://www.w3.org/2000/svg">
<path fill-rule="evenodd" clip-rule="evenodd" d="M136.825 1.54928C136.906 1.46857 136.985 1.436 137.053 1.436C137.174 1.436 137.257 1.54324 137.254 1.67382C137.251 1.75248 137.217 1.83729 137.14 1.91277C134.149 5.64125 131.973 10.0002 131.973 16.046C131.973 22.088 134.149 26.3615 137.14 30.0887C137.217 30.1634 137.251 30.2534 137.254 30.3281C137.257 30.4594 137.174 30.5663 137.053 30.5663C136.985 30.5663 136.906 30.5342 136.825 30.4517L124.073 18.0925C123.437 17.5471 123.031 16.9101 123.031 16.0022C123.031 15.0918 123.437 14.4547 124.073 13.913L136.825 1.54928Z" fill="#E81E26"/>
<path fill-rule="evenodd" clip-rule="evenodd" d="M146.626 0.504211C141.634 0.504211 139.684 7.59564 139.684 16.0458C139.684 24.4995 141.634 31.4958 146.626 31.4958C149.622 31.4958 152.176 29.7368 152.185 28.2914C152.185 27.9754 152.064 27.6737 151.799 27.4091C150.38 26.0349 149.826 24.6601 149.819 23.4477C149.811 21.132 151.816 19.4083 153.661 19.4083C156.202 19.4083 157.7 21.4092 157.7 23.9987C157.7 26.4532 156.654 28.4998 155.521 30.1364C155.476 30.203 155.457 30.2769 155.457 30.3428C155.457 30.4693 155.532 30.5757 155.646 30.5757C155.715 30.5757 155.796 30.5392 155.882 30.4516L168.636 18.0924C169.272 17.5469 169.679 16.91 169.679 16.002C169.679 15.0915 169.272 14.4546 168.636 13.9128L155.882 1.54914C155.796 1.46445 155.715 1.42585 155.646 1.42585C155.53 1.42585 155.457 1.5331 155.457 1.66163C155.457 1.72742 155.476 1.8013 155.521 1.87006C156.654 3.50457 157.7 5.55188 157.7 8.00285C157.7 10.5916 156.202 12.596 153.661 12.596C151.816 12.596 149.811 10.8704 149.819 8.55463C149.826 7.34463 150.38 5.9684 151.799 4.59526C152.064 4.32866 152.185 4.02778 152.185 3.7113C152.176 2.2652 149.622 0.504211 146.626 0.504211V0.504211Z" fill="#254F9A"/>
<path fill-rule="evenodd" clip-rule="evenodd" d="M2.58266 23.1346C1.01177 21.5198 -0.00126935 19.1636 1.19375e-06 16.2287C1.19375e-06 13.4198 0.989419 11.0513 2.53462 9.38502C4.07953 7.7192 6.18162 6.75645 8.39774 6.75645C12.3719 6.76331 15.1785 9.54928 15.193 11.9585C15.1916 13.246 14.3779 14.2428 13.2763 14.2455C12.7329 14.2455 12.2244 14.0593 11.8501 13.7074C11.4766 13.3548 11.2446 12.8396 11.2459 12.2114C11.2437 11.4577 11.6304 11.0006 11.9181 10.6726C11.3956 9.76365 10.3609 9.01515 8.74081 9.01185C7.36226 9.0139 6.2029 9.72835 5.36695 10.9901C4.53149 12.2516 4.03857 14.062 4.03857 16.203C4.03857 18.3399 4.55275 20.1439 5.41072 21.3997C6.26982 22.6579 7.45359 23.3692 8.83263 23.3724C10.4535 23.3687 11.4882 22.6286 12.0088 21.7134C11.719 21.3921 11.3363 20.9315 11.3371 20.1836C11.3364 19.5548 11.5676 19.0354 11.9414 18.6829C12.3158 18.3323 12.8246 18.1456 13.3676 18.1456C14.4697 18.1456 15.2813 19.1379 15.284 20.423C15.2708 22.8439 12.4632 25.6202 8.49038 25.6278C6.27871 25.6278 4.15271 24.7491 2.58266 23.1346ZM2.58266 23.1346C1.01177 21.5198 -0.00126935 19.1636 1.19375e-06 16.2287C1.19375e-06 13.4198 0.989419 11.0513 2.53462 9.38502C4.07953 7.7192 6.18162 6.75645 8.39774 6.75645C12.3719 6.76331 15.1785 9.54928 15.193 11.9585C15.1916 13.246 14.3779 14.2428 13.2763 14.2455C12.7329 14.2455 12.2244 14.0593 11.8501 13.7074C11.4766 13.3548 11.2446 12.8396 11.2459 12.2114C11.2437 11.4577 11.6304 11.0006 11.9181 10.6726C11.3956 9.76365 10.3609 9.01515 8.74081 9.01185C7.36226 9.0139 6.2029 9.72835 5.36695 10.9901C4.53149 12.2516 4.03857 14.062 4.03857 16.203C4.03857 18.3399 4.55275 20.1439 5.41072 21.3997C6.26982 22.6579 7.45359 23.3692 8.83263 23.3724C10.4535 23.3687 11.4882 22.6286 12.0088 21.7134C11.719 21.3921 11.3363 20.9315 11.3371 20.1836C11.3364 19.5548 11.5676 19.0354 11.9414 18.6829C12.3158 18.3323 12.8246 18.1456 13.3676 18.1456C14.4697 18.1456 15.2813 19.1379 15.284 20.423C15.2708 22.8439 12.4632 25.6202 8.49038 25.6278C6.27871 25.6278 4.15271 24.7491 2.58266 23.1346ZM2.58266 23.1346C1.01177 21.5198 -0.00126935 19.1636 1.19375e-06 16.2287C1.19375e-06 13.4198 0.989419 11.0513 2.53462 9.38502C4.07953 7.7192 6.18162 6.75645 8.39774 6.75645C12.3719 6.76331 15.1785 9.54928 15.193 11.9585C15.1916 13.246 14.3779 14.2428 13.2763 14.2455C12.7329 14.2455 12.2244 14.0593 11.8501 13.7074C11.4766 13.3548 11.2446 12.8396 11.2459 12.2114C11.2437 11.4577 11.6304 11.0006 11.9181 10.6726C11.3956 9.76365 10.3609 9.01515 8.74081 9.01185C7.36226 9.0139 6.2029 9.72835 5.36695 10.9901C4.53149 12.2516 4.03857 14.062 4.03857 16.203C4.03857 18.3399 4.55275 20.1439 5.41072 21.3997C6.26982 22.6579 7.45359 23.3692 8.83263 23.3724C10.4535 23.3687 11.4882 22.6286 12.0088 21.7134C11.719 21.3921 11.3363 20.9315 11.3371 20.1836C11.3364 19.5548 11.5676 19.0354 11.9414 18.6829C12.3158 18.3323 12.8246 18.1456 13.3676 18.1456C14.4697 18.1456 15.2813 19.1379 15.284 20.423C15.2708 22.8439 12.4632 25.6202 8.49038 25.6278C6.27871 25.6278 4.15271 24.7491 2.58266 23.1346ZM59.8786 16.8857C60.1355 16.8801 60.2044 16.8218 60.2545 16.7395C60.3053 16.6504 60.3194 16.478 60.3174 16.2645C60.2922 15.0299 59.3337 13.8858 57.8554 13.8858C55.9951 13.8858 55.2405 15.3781 55.1235 16.8854H59.8786V16.8857ZM22.9296 19.0378C21.5034 19.0523 20.5428 19.7242 20.5352 21.0527C20.544 22.3073 21.3892 23.1514 22.7188 23.1603C23.58 23.1627 24.4616 22.6845 25.0183 21.994V20.1555C25.0183 19.9042 24.8539 19.6306 24.5017 19.4106C24.1502 19.1921 23.6161 19.0378 22.9296 19.0378V19.0378ZM77.2733 18.2877C77.2801 21.8479 78.8241 23.3792 80.3409 23.3837C82.0732 23.3816 83.3265 21.8499 83.3372 18.8519C83.3385 17.2869 82.9922 16.0347 82.4279 15.187C81.8621 14.3364 81.0911 13.8858 80.2019 13.8858C78.4029 13.8882 77.2837 15.517 77.2733 18.2877V18.2877ZM32.1866 25.0659C31.6296 24.9129 31.2725 24.605 31.2733 24.1434C31.274 23.9611 31.3266 23.7675 31.4228 23.5575L31.4536 23.4913L31.525 23.4776C31.743 23.4347 32.0956 23.3286 32.4146 23.0833C32.7404 22.8065 32.873 22.4234 32.8758 21.3479V15.9286C32.8478 15.0159 32.6354 14.6966 31.8788 14.6749C31.7077 14.6749 31.5074 14.6966 31.2774 14.7404L31.1611 14.7617L31.1182 14.6528C31.035 14.4471 30.9968 14.2484 30.9968 14.062C31.016 12.9837 32.1986 12.4299 33.0001 12.1814C33.3134 12.0854 33.606 12.0355 33.8778 12.0355C34.9682 12.0331 35.5555 12.8002 35.8092 13.7846C36.5218 12.6372 37.6547 11.877 38.7634 11.8721C39.795 11.8741 40.8569 12.5549 40.8613 13.8564C40.8585 14.7789 40.2074 15.7475 39.1121 15.7512C38.3115 15.7519 37.6085 15.2186 37.4579 14.4352C36.8387 14.6384 35.9615 15.4099 35.9523 18.0797V21.3479C35.9552 22.4198 36.109 22.8041 36.4312 23.078C36.7298 23.3157 37.3725 23.4347 37.6041 23.4776L37.6762 23.4913L37.7064 23.5575C37.8102 23.7852 37.8695 23.9912 37.8695 24.1865C37.8737 24.6245 37.5437 24.927 37.0151 25.0743C36.4817 25.2326 35.7039 25.2916 34.6463 25.2916C33.5683 25.2916 32.7533 25.229 32.1866 25.0659V25.0659ZM42.9985 25.0659C42.441 24.9129 42.0828 24.605 42.0831 24.1434C42.0859 23.9611 42.1381 23.7675 42.2346 23.5575L42.2656 23.4913L42.3372 23.4776C42.5552 23.4347 42.9059 23.3286 43.2241 23.0833C43.5495 22.8065 43.6828 22.4234 43.6852 21.3479V15.9286C43.6589 15.0159 43.446 14.6966 42.6906 14.6749C42.5175 14.6749 42.3176 14.6966 42.088 14.7404L41.9721 14.7617L41.9293 14.6528C41.8459 14.4471 41.8074 14.2484 41.8074 14.062C41.827 12.9837 43.0097 12.4299 43.8095 12.1814C44.1237 12.0854 44.4167 12.0355 44.6908 12.0355C45.7799 12.0331 46.3669 12.8002 46.6206 13.7881C47.3324 12.6372 48.4656 11.877 49.5745 11.8725C50.6044 11.8741 51.6664 12.5549 51.6707 13.8564C51.6683 14.7789 51.0183 15.7475 49.9227 15.7512C49.1208 15.7519 48.42 15.2186 48.2689 14.4352C47.6501 14.6384 46.7701 15.4099 46.7617 18.0797V21.3479C46.7666 22.4198 46.9217 22.8041 47.2422 23.078C47.5436 23.3157 48.1828 23.4347 48.4155 23.4776L48.4865 23.4913L48.5173 23.5575C48.6204 23.7849 48.6785 23.9912 48.6785 24.1865C48.6841 24.6245 48.3535 24.927 47.8257 25.0743C47.2919 25.2326 46.5141 25.2916 45.4578 25.2916C44.379 25.2916 43.5647 25.229 42.9985 25.0659V25.0659ZM65.8764 25.0659C65.3146 24.9105 64.9519 24.6032 64.9532 24.139C64.9532 23.959 65.0056 23.765 65.1017 23.5566L65.1318 23.4916L65.2032 23.4779C65.422 23.435 65.7739 23.3289 66.0928 23.0836C66.417 22.8068 66.5504 22.4238 66.5553 21.3482V14.2263L64.6453 14.1596L64.6117 14.0744C64.5139 13.8395 64.4658 13.615 64.4658 13.4041C64.467 12.7106 65.0033 12.2467 65.672 12.2467H66.5063V11.458C66.5063 9.55315 66.8606 8.46883 67.3443 7.74162C68.0872 6.58251 69.3796 5.78699 71.3476 5.78983C73.823 5.79224 75.8963 6.9444 75.9088 8.79784C75.9071 9.60018 75.3497 10.5958 74.1861 10.5974C73.3164 10.5937 72.5134 9.86609 72.5085 8.94035C72.5101 8.59974 72.622 8.25527 72.7911 7.99902C72.5314 7.77009 72.0353 7.63278 71.5579 7.63631C70.7894 7.64197 70.3691 7.90624 70.1018 8.34805C69.8349 8.791 69.7459 9.43921 69.7463 10.1729V12.2218H73.0247L73.0628 12.3102C73.1614 12.5492 73.207 12.7801 73.2059 12.9969C73.2083 13.709 72.7013 14.2423 72.0613 14.3026C71.8186 14.3275 71.558 14.3275 71.3268 14.3275C70.781 14.3275 70.2412 14.2889 69.8396 14.2808V21.3482C69.8424 22.4165 70.018 22.7997 70.3414 23.0784C70.6287 23.3097 71.4414 23.435 71.6794 23.4779L71.7504 23.4904L71.7812 23.5579C71.869 23.7498 71.9159 23.9261 71.9159 24.096C71.9159 24.5843 71.5183 24.8932 70.9185 25.0562C70.3114 25.2286 69.4469 25.292 68.3465 25.292C67.2661 25.292 66.447 25.2294 65.8764 25.0659V25.0659ZM104.875 25.0659C104.316 24.9129 103.955 24.6066 103.957 24.1434C103.957 23.9611 104.012 23.7675 104.108 23.5563L104.138 23.4913L104.208 23.4776C104.418 23.4347 104.783 23.327 105.087 23.0804C105.421 22.8065 105.55 22.4238 105.55 21.3479V15.9286C105.526 15.0159 105.318 14.6966 104.56 14.6749C104.389 14.6749 104.188 14.6966 103.957 14.7404L103.842 14.7617L103.798 14.6528C103.718 14.4479 103.681 14.2541 103.681 14.0725C103.7 12.989 104.883 12.4299 105.678 12.1814C106.002 12.0854 106.284 12.0355 106.575 12.0355C107.655 12.0331 108.242 12.8115 108.491 13.8118C109.199 12.6475 110.327 11.877 111.439 11.8721C112.483 11.8741 113.533 12.5568 113.535 13.8564C113.534 14.7789 112.885 15.7459 111.801 15.7512C110.996 15.7519 110.288 15.2186 110.133 14.4352C109.519 14.6376 108.654 15.4082 108.644 18.0797V21.3479C108.648 22.4198 108.798 22.8065 109.099 23.078C109.414 23.3157 110.054 23.4347 110.277 23.4776L110.348 23.4913L110.378 23.5575C110.484 23.788 110.544 23.9965 110.544 24.1924C110.547 24.629 110.221 24.9302 109.696 25.0748C109.164 25.2326 108.389 25.2916 107.336 25.2916C106.258 25.2916 105.441 25.229 104.875 25.0659ZM80.2019 25.4699C78.3865 25.4699 76.732 24.7864 75.5325 23.5917C74.3335 22.398 73.5918 20.6909 73.5918 18.6596C73.5981 14.6384 76.7552 11.9026 80.3174 11.8957C82.2348 11.8957 83.8975 12.5802 85.0756 13.7705C86.255 14.9617 86.9483 16.6572 86.9483 18.6596C86.9483 20.6672 86.2249 22.3752 85.0167 23.5764C83.8081 24.7764 82.1194 25.4699 80.2038 25.4699H80.2019ZM51.6651 18.9171C51.6651 16.8817 52.3332 15.1247 53.5033 13.8769C54.6718 12.628 56.3429 11.8938 58.3213 11.8957C60.1226 11.8938 61.4578 12.5645 62.3331 13.5239C63.2083 14.4829 63.6259 15.7235 63.6259 16.8668C63.6259 17.5431 63.4836 18.1737 63.1883 18.7042L63.1499 18.7773H55.0971C55.2305 21.1262 56.7228 22.7668 59.3195 22.7755C60.9172 22.78 62.1472 21.8973 62.5568 21.3716L62.6424 21.2608L62.7551 21.3442C62.987 21.511 63.2375 21.8162 63.2323 22.4009C63.2239 23.7547 61.6411 25.4888 58.1338 25.4912C54.5685 25.4852 51.6707 22.6398 51.6651 18.9171V18.9171ZM98.1107 24.8953C97.8751 24.5651 97.7469 24.1463 97.6351 23.6647C97.5036 23.813 97.3498 23.9728 97.1158 24.1973C96.2521 25.0077 95.1245 25.4972 93.8529 25.4964C92.4664 25.4972 91.285 24.9635 90.5324 24.074C89.3759 22.6921 89.3856 20.9391 89.384 18.4492V16.0492C89.3591 15.0785 89.0545 14.7472 88.1552 14.7223C88.0398 14.7223 87.9112 14.7299 87.7746 14.7456L87.6672 14.7572L87.6267 14.6564C87.5558 14.4789 87.5222 14.3046 87.5222 14.1392C87.551 12.9793 89.0165 12.3589 89.8772 12.1798C90.1786 12.1339 90.4615 12.0854 90.7368 12.0854C91.4386 12.0834 91.9579 12.3099 92.2824 12.7163C92.6087 13.1219 92.738 13.6805 92.7385 14.3299L92.7157 18.4266C92.7144 19.9391 92.8223 21.0716 93.1569 21.7993C93.4947 22.521 94.0056 22.8612 94.9469 22.8704C95.9712 22.8664 96.5899 22.425 96.9847 21.7676C97.3802 21.1062 97.5244 20.2186 97.524 19.3656V16.0492C97.4992 15.0785 97.1927 14.7456 96.2946 14.7223C96.1763 14.7223 96.0501 14.7299 95.9147 14.7456L95.8062 14.7572L95.7652 14.6564C95.6947 14.4789 95.6606 14.3046 95.6606 14.1392C95.6899 12.9793 97.1538 12.3589 98.0194 12.1798C98.3175 12.1339 98.6041 12.0854 98.8793 12.0854C99.581 12.0834 100.1 12.3099 100.427 12.7163C100.756 13.1219 100.886 13.6805 100.886 14.3287C100.886 14.7986 100.841 15.6335 100.841 19.1227C100.841 20.5973 100.817 21.3809 100.817 21.6194C100.839 22.6246 101.178 23.0756 102.105 23.0945C102.203 23.0945 102.306 23.0869 102.421 23.0764L102.527 23.0647L102.566 23.1656C102.637 23.3422 102.671 23.5109 102.671 23.67C102.635 24.8029 101.166 25.2567 100.314 25.4273C100.019 25.4724 99.7485 25.5174 99.5093 25.5174H99.4912C98.8325 25.5174 98.3888 25.2853 98.1107 24.8953V24.8953ZM17.0172 21.2769C17.0143 19.9881 17.5827 18.9435 18.538 18.2395C19.4917 17.5347 20.8237 17.1612 22.3689 17.1612C23.3355 17.1628 24.3294 17.3395 25.0183 17.6372V16.1901C24.995 14.7315 24.4452 13.9034 22.8122 13.8845C22.5068 13.8845 21.8232 13.9653 21.2633 14.1556C21.3159 14.3648 21.3496 14.5793 21.3496 14.7882C21.3496 15.2753 21.1944 15.7246 20.9011 16.0548C20.6078 16.3845 20.1738 16.5869 19.6492 16.5869C18.7079 16.5841 17.9966 15.8187 17.9938 14.8588C18.0142 13.0873 20.1582 11.8967 23.0225 11.8957C25.2956 11.8957 26.7218 12.4356 27.484 13.4175C28.1757 14.299 28.2081 15.5858 28.2109 17.4025V22.1335C28.2245 23.0502 28.7419 23.3001 29.8799 23.476L30.0106 23.4925L30.0022 23.6258C29.936 24.8736 29.0192 25.3913 28.0338 25.4699C27.948 25.4775 27.8635 25.4812 27.7788 25.4812C26.8107 25.4836 25.877 25.0073 25.4318 24.0375C24.8227 24.5519 23.4477 25.5117 21.6709 25.5137C19.028 25.5101 17.0216 23.7234 17.0172 21.2769V21.2769Z" fill="#254F9A"/>
</svg>